<svg width="15" height="14" viewBox="0 0 15 14" fill="none" xmlns="http://www.w3.org/2000/svg">
<path d="M13.6667 11L13 11.7294C12.6464 12.1161 12.1668 12.3333 11.6668 12.3333C11.1668 12.3333 10.6873 12.1161 10.3337 11.7294C9.97956 11.3434 9.50007 11.1267 9.0002 11.1267C8.50033 11.1267 8.02084 11.3434 7.66673 11.7294M1.66675 12.3333H2.78311C3.10923 12.3333 3.27229 12.3333 3.42574 12.2965C3.56179 12.2638 3.69185 12.21 3.81115 12.1369C3.9457 12.0544 4.061 11.9391 4.2916 11.7085L12.6668 3.33334C13.219 2.78106 13.219 1.88563 12.6668 1.33334C12.1145 0.781057 11.219 0.781058 10.6668 1.33334L2.29159 9.7085C2.06099 9.9391 1.94568 10.0544 1.86323 10.189C1.79012 10.3083 1.73625 10.4383 1.70359 10.5744C1.66675 10.7278 1.66675 10.8909 1.66675 11.217V12.3333Z" stroke="#FEFEFE" stroke-width="1.6" stroke-linecap="round" stroke-linejoin="round"/>
</svg>
