<svg width="15" height="16" viewBox="0 0 15 16" fill="none" xmlns="http://www.w3.org/2000/svg">
<path d="M10.3334 3.99998V3.46665C10.3334 2.71991 10.3334 2.34654 10.1881 2.06133C10.0603 1.81044 9.85629 1.60647 9.6054 1.47864C9.32019 1.33331 8.94682 1.33331 8.20008 1.33331H7.13341C6.38668 1.33331 6.01331 1.33331 5.72809 1.47864C5.47721 1.60647 5.27324 1.81044 5.14541 2.06133C5.00008 2.34654 5.00008 2.71991 5.00008 3.46665V3.99998M6.33341 7.66665V11M9.00008 7.66665V11M1.66675 3.99998H13.6667M12.3334 3.99998V11.4666C12.3334 12.5868 12.3334 13.1468 12.1154 13.5746C11.9237 13.951 11.6177 14.2569 11.2414 14.4487C10.8136 14.6666 10.2535 14.6666 9.13341 14.6666H6.20008C5.07998 14.6666 4.51992 14.6666 4.0921 14.4487C3.71578 14.2569 3.40982 13.951 3.21807 13.5746C3.00008 13.1468 3.00008 12.5868 3.00008 11.4666V3.99998" stroke="#FEFEFE" stroke-width="1.6" stroke-linecap="round" stroke-linejoin="round"/>
</svg>
